<svg width="34" height="34" viewBox="0 0 34 34" fill="none" xmlns="http://www.w3.org/2000/svg">
<mask id="mask0_3290_55545" style="mask-type:alpha" maskUnits="userSpaceOnUse" x="7" y="7" width="20" height="20">
<path d="M8.47969 15.5464L15.5464 15.5464L15.5464 8.47969C15.5464 7.70236 16.1824 7.06636 16.9597 7.06636C17.737 7.06636 18.373 7.70236 18.373 8.47969L18.373 15.5464L25.4397 15.5464C26.217 15.5464 26.853 16.1824 26.853 16.9597C26.853 17.737 26.217 18.373 25.4397 18.373L18.373 18.373L18.373 25.4397C18.373 26.217 17.737 26.853 16.9597 26.853C16.1824 26.853 15.5464 26.217 15.5464 25.4397L15.5464 18.373L8.47969 18.373C7.70236 18.373 7.06636 17.737 7.06636 16.9597C7.06636 16.1824 7.70236 15.5464 8.47969 15.5464Z" fill="black"/>
</mask>
<g mask="url(#mask0_3290_55545)">
<rect x="33.9199" y="33.9199" width="33.92" height="33.92" transform="rotate(-180 33.9199 33.9199)" fill="#1479EC"/>
</g>
</svg>
