<svg width="19" height="26" viewBox="0 0 19 26" fill="none" xmlns="http://www.w3.org/2000/svg">
<path d="M3.638 1.32639C3.75504 0.9429 3.99558 0.606628 4.32382 0.367631C4.65206 0.128634 5.05045 -0.000307724 5.45968 5.51486e-07H13.8291C14.136 0.000113214 14.4382 0.0729226 14.7101 0.212199C14.9819 0.351476 15.2151 0.553074 15.3899 0.799744C15.5646 1.04641 15.6756 1.33082 15.7135 1.62861C15.7513 1.92641 15.7148 2.22874 15.6071 2.50973L13.7209 7.43075H17.577C17.8449 7.43105 18.1073 7.50522 18.334 7.64474C18.5608 7.78427 18.7427 7.9835 18.8589 8.21956C18.9752 8.45562 19.021 8.71894 18.9911 8.97931C18.9613 9.23968 18.8569 9.48654 18.6901 9.69155L6.13972 25.1103C4.51749 27.1036 1.27305 25.4596 2.00248 23.0149L4.43391 14.8615H1.42691C1.20488 14.8618 0.985839 14.8114 0.787269 14.7143C0.588699 14.6171 0.416096 14.4759 0.283231 14.302C0.150367 14.128 0.06092 13.9261 0.0220274 13.7123C-0.0168652 13.4985 -0.00412683 13.2788 0.0592264 13.0707L3.638 1.32639ZM13.831 1.85769H5.45968L2.06326 13.0038H5.70092C5.84837 13.0038 5.99379 13.0374 6.12567 13.1019C6.25756 13.1664 6.37228 13.26 6.46074 13.3753C6.54921 13.4907 6.609 13.6246 6.63538 13.7665C6.66176 13.9084 6.654 14.0543 6.61271 14.1927L3.82605 23.535C3.7874 23.6402 3.79148 23.7559 3.83745 23.8583C3.88646 23.9534 3.96581 24.0303 4.0635 24.0775C4.17177 24.1332 4.28385 24.1462 4.37503 24.1313C4.48787 24.1099 4.58789 24.0467 4.65426 23.9549L16.5911 9.28843H12.3494C12.1958 9.28843 12.0446 9.25203 11.9086 9.18234C11.7726 9.11265 11.6559 9.01175 11.5685 8.8883C11.4811 8.76484 11.4256 8.6225 11.4068 8.47347C11.3879 8.32445 11.4063 8.17318 11.4604 8.03263L13.831 1.85769Z" fill="black"/>
</svg>
