<svg width="18" height="26" viewBox="0 0 18 26" fill="none" xmlns="http://www.w3.org/2000/svg">
<path d="M5.17104 5.51503e-07C4.78332 -0.000307734 4.40586 0.128638 4.09486 0.367643C3.78386 0.606647 3.55596 0.94293 3.44507 1.32643L0.0561144 13.0711C-0.0038668 13.2791 -0.0159623 13.4986 0.0207916 13.7123C0.0575454 13.9259 0.142133 14.1277 0.267814 14.3017C0.393494 14.4756 0.556794 14.6168 0.744702 14.7141C0.932609 14.8114 1.13993 14.862 1.35014 14.862H4.19917L1.89547 23.0156C1.20436 25.4604 4.27836 27.1026 5.81536 25.1111L17.7064 9.69186C17.8646 9.48659 17.9635 9.23938 17.9917 8.97867C18.0198 8.71796 17.9761 8.45434 17.8656 8.21814C17.755 7.98194 17.5821 7.78276 17.3667 7.6435C17.1514 7.50425 16.9023 7.43058 16.6481 7.43098H12.9946L14.7836 2.50981C14.8856 2.22896 14.9202 1.92679 14.8844 1.62912C14.8486 1.33146 14.7436 1.04717 14.5782 0.800532C14.4129 0.553897 14.1921 0.352259 13.9348 0.212851C13.6775 0.0734439 13.3914 0.000413001 13.1008 5.51503e-07H5.17104Z" fill="black"/>
</svg>
