<svg width="23" height="23" viewBox="0 0 23 23" fill="none" xmlns="http://www.w3.org/2000/svg">
<path d="M0.00066174 11.4978C0.00115078 8.96595 0.837119 6.50505 2.37889 4.49682C3.92065 2.4886 6.08203 1.04531 8.52774 0.390853C10.9734 -0.263606 13.5668 -0.0926536 15.9054 0.877192C18.244 1.84704 20.1973 3.56156 21.4621 5.7548C22.7269 7.94803 23.2326 10.4974 22.9008 13.0074C22.5689 15.5173 21.4181 17.8477 19.6267 19.6368C17.8354 21.426 15.5037 22.5739 12.9934 22.9026C10.4831 23.2314 7.93441 22.7224 5.74283 21.4548L1.26179 22.9498C1.09624 23.0051 0.918735 23.0141 0.748436 22.9759C0.578137 22.9377 0.42151 22.8537 0.29546 22.7329C0.16941 22.6122 0.0787242 22.4594 0.0331887 22.2909C-0.0123468 22.1224 -0.0110022 21.9446 0.0370774 21.7768L1.4017 17.0024C0.479845 15.3143 -0.00198922 13.4212 0.00066174 11.4978ZM11.5003 1.91445C9.8083 1.91434 8.14642 2.36224 6.6836 3.21262C5.22079 4.06299 4.00919 5.28552 3.17198 6.75594C2.33477 8.22636 1.90179 9.89224 1.91706 11.5842C1.93233 13.2762 2.39529 14.934 3.2589 16.3891C3.32534 16.5015 3.36812 16.6263 3.3846 16.7558C3.40108 16.8854 3.39091 17.0169 3.35473 17.1424L2.37917 20.554L5.55691 19.496C5.69187 19.451 5.83516 19.4366 5.97639 19.4538C6.11761 19.471 6.25323 19.5195 6.37339 19.5957C7.62929 20.3905 9.05284 20.8823 10.5315 21.0322C12.0102 21.1821 13.5035 20.986 14.8934 20.4594C16.2832 19.9328 17.5315 19.0902 18.5397 17.998C19.5478 16.9059 20.2881 15.5942 20.702 14.1667C21.1159 12.7392 21.1921 11.235 20.9246 9.77296C20.6571 8.31092 20.0533 6.93114 19.1607 5.74269C18.2682 4.55423 17.1114 3.58968 15.7819 2.92526C14.4524 2.26085 12.9866 1.9148 11.5003 1.91445Z" fill="black"/>
</svg>
