<svg width="25" height="24" viewBox="0 0 25 24" fill="none" xmlns="http://www.w3.org/2000/svg">
<path d="M25 11.9986C25 8.81639 23.683 5.76449 21.3388 3.51431C18.9946 1.26414 15.8152 0 12.5 0C9.18479 0 6.00537 1.26414 3.66117 3.51431C1.31696 5.76449 0 8.81639 0 11.9986L0.0109375 12.5176L0.0515625 13.0905C0.192777 14.5997 0.632393 16.0693 1.34687 17.4205L1.44531 17.6005L0.0234377 23.0658L0.00156239 23.1903V23.3133C0.0114866 23.4214 0.0457201 23.5261 0.1019 23.6202C0.158079 23.7144 0.234868 23.7957 0.326966 23.8586C0.419064 23.9214 0.52428 23.9644 0.635351 23.9844C0.746422 24.0045 0.860705 24.0012 0.970313 23.9747L6.66562 22.6099L6.85313 22.7059C8.75904 23.6323 10.8805 24.0743 13.015 23.9898C15.1495 23.9053 17.2259 23.2971 19.0458 22.2233C20.8658 21.1494 22.3687 19.6458 23.4111 17.8558C24.4535 16.0658 25.0005 14.0493 25 11.9986Z" fill="black"/>
</svg>
