<svg width="24" height="26" viewBox="0 0 24 26" fill="none" xmlns="http://www.w3.org/2000/svg">
<path d="M10.0569 0.745246C10.5993 0.264154 11.2881 0 12 0C12.7119 0 13.4007 0.264154 13.9431 0.745246L22.9431 8.72626C23.2743 9.02008 23.5404 9.38551 23.7229 9.79725C23.9054 10.209 24 10.6572 24 11.1108V23.5923C24 24.2309 23.7569 24.8433 23.3241 25.2948C22.8913 25.7463 22.3043 26 21.6923 26H18C17.388 26 16.801 25.7463 16.3682 25.2948C15.9354 24.8433 15.6923 24.2309 15.6923 23.5923V17.3323C15.6923 16.823 15.4989 16.3343 15.1545 15.9734C14.8101 15.6124 14.3427 15.4085 13.8545 15.4062H10.1446C9.65659 15.4087 9.18938 15.6128 8.84515 15.9737C8.50092 16.3347 8.30769 16.8231 8.30769 17.3323V23.5923C8.30769 23.9085 8.248 24.2216 8.13203 24.5137C8.01606 24.8058 7.84607 25.0712 7.63178 25.2948C7.4175 25.5184 7.1631 25.6957 6.88312 25.8167C6.60313 25.9377 6.30305 26 6 26H2.30769C1.69565 26 1.10868 25.7463 0.675907 25.2948C0.243131 24.8433 0 24.2309 0 23.5923V11.1108C2.4287e-05 10.6572 0.0945586 10.209 0.277056 9.79725C0.459553 9.38551 0.725652 9.02008 1.05692 8.72626L10.0569 0.745246Z" fill="black"/>
</svg>
