<svg width="18" height="23" viewBox="0 0 18 23" fill="none" xmlns="http://www.w3.org/2000/svg">
<path d="M15.3 11.96C16.0161 11.96 16.7028 12.2508 17.2092 12.7684C17.7155 13.286 18 13.988 18 14.72V15.64C18 19.2666 14.652 23 9 23C3.348 23 0 19.2666 0 15.64V14.72C0 13.988 0.284464 13.286 0.790812 12.7684C1.29716 12.2508 1.98392 11.96 2.7 11.96H15.3ZM15.3 13.8H2.7C2.46131 13.8 2.23239 13.8969 2.0636 14.0695C1.89482 14.242 1.8 14.476 1.8 14.72V15.64C1.8 18.2859 4.3776 21.16 9 21.16C13.6224 21.16 16.2 18.2859 16.2 15.64V14.72C16.2 14.476 16.1052 14.242 15.9364 14.0695C15.7676 13.8969 15.5387 13.8 15.3 13.8ZM9 0C10.3128 0 11.5719 0.533106 12.5002 1.48204C13.4285 2.43097 13.95 3.718 13.95 5.06C13.95 6.402 13.4285 7.68903 12.5002 8.63796C11.5719 9.58689 10.3128 10.12 9 10.12C7.68718 10.12 6.42813 9.58689 5.49982 8.63796C4.57152 7.68903 4.05 6.402 4.05 5.06C4.05 3.718 4.57152 2.43097 5.49982 1.48204C6.42813 0.533106 7.68718 0 9 0ZM9 1.84C8.16457 1.84 7.36335 2.17925 6.77261 2.78312C6.18187 3.38698 5.85 4.206 5.85 5.06C5.85 5.914 6.18187 6.73302 6.77261 7.33688C7.36335 7.94075 8.16457 8.28 9 8.28C9.83543 8.28 10.6366 7.94075 11.2274 7.33688C11.8181 6.73302 12.15 5.914 12.15 5.06C12.15 4.206 11.8181 3.38698 11.2274 2.78312C10.6366 2.17925 9.83543 1.84 9 1.84Z" fill="black"/>
</svg>
