<svg width="19" height="22" viewBox="0 0 19 22" fill="none" xmlns="http://www.w3.org/2000/svg">
<path d="M16.15 11.44C16.9059 11.44 17.6308 11.7181 18.1653 12.2132C18.6997 12.7083 19 13.3798 19 14.08V14.96C19 18.429 15.466 22 9.5 22C3.534 22 0 18.429 0 14.96V14.08C0 13.3798 0.300267 12.7083 0.834746 12.2132C1.36922 11.7181 2.09413 11.44 2.85 11.44H16.15ZM9.5 0C10.8858 0 12.2148 0.509927 13.1946 1.4176C14.1745 2.32528 14.725 3.55635 14.725 4.84C14.725 6.12365 14.1745 7.35472 13.1946 8.2624C12.2148 9.17007 10.8858 9.68 9.5 9.68C8.11424 9.68 6.78524 9.17007 5.80537 8.2624C4.82549 7.35472 4.275 6.12365 4.275 4.84C4.275 3.55635 4.82549 2.32528 5.80537 1.4176C6.78524 0.509927 8.11424 0 9.5 0Z" fill="black"/>
</svg>
